<svg width="31" height="31" viewBox="0 0 31 31" fill="none" xmlns="http://www.w3.org/2000/svg">
<path d="M11.8833 6.20003V4.13336M20.15 6.20003V4.13336M16.0166 24.8C11.876 24.8 9.80628 24.8 8.51978 23.4381C7.23328 22.0762 7.23328 19.8834 7.23328 15.5C7.23328 11.1166 7.23328 8.9239 8.51978 7.56196C9.80628 6.20003 11.876 6.20003 16.0166 6.20003C20.1572 6.20003 22.227 6.20003 23.5135 7.56196C24.8 8.9239 24.8 11.1166 24.8 15.5C24.8 19.8834 24.8 22.0762 23.5135 23.4381C22.227 24.8 20.1572 24.8 16.0166 24.8Z" stroke="#424242" stroke-width="1.55" stroke-linecap="round" stroke-linejoin="round"/>
<path d="M18.1018 11.8761C18.1018 12.4243 17.8841 12.9499 17.4965 13.3375C17.109 13.7251 16.5833 13.9428 16.0352 13.9428C15.4871 13.9428 14.9614 13.7251 14.5738 13.3375C14.1862 12.9499 13.9685 12.4243 13.9685 11.8761C13.9685 11.328 14.1862 10.8024 14.5738 10.4148C14.9614 10.0272 15.4871 9.80948 16.0352 9.80948C16.5833 9.80948 17.109 10.0272 17.4965 10.4148C17.8841 10.8024 18.1018 11.328 18.1018 11.8761ZM11.9483 19.3399C13.0416 17.6556 14.7786 17.0253 16.0352 17.0263C17.2917 17.0273 18.9781 17.6566 20.0714 19.341C20.1416 19.4495 20.1613 19.5828 20.0972 19.6964C19.842 20.1501 19.0473 21.0501 18.4749 21.1111C17.8156 21.1803 16.091 21.1906 16.0362 21.1906C15.9814 21.1906 14.2051 21.1803 13.5459 21.1111C12.9713 21.0491 12.1777 20.1501 11.9215 19.6954C11.8584 19.5828 11.8781 19.4495 11.9483 19.3399Z" stroke="#424242" stroke-width="1.55" stroke-linecap="round" stroke-linejoin="round"/>
</svg>
