<svg width="33" height="33" viewBox="0 0 33 33" fill="none" xmlns="http://www.w3.org/2000/svg">
<g clip-path="url(#clip0_30_780)">
<path d="M32.16 16.08C32.16 7.19932 24.9607 0 16.08 0C7.19932 0 0 7.19932 0 16.08C0 24.1059 5.88025 30.7584 13.5675 31.9647V20.7281H9.48469V16.08H13.5675V12.5374C13.5675 8.50733 15.9682 6.28125 19.6412 6.28125C21.4005 6.28125 23.2406 6.59531 23.2406 6.59531V10.5525H21.213C19.2155 10.5525 18.5925 11.792 18.5925 13.0637V16.08H23.0522L22.3393 20.7281H18.5925V31.9647C26.2797 30.7584 32.16 24.1061 32.16 16.08Z" fill="#1877F2"/>
<path d="M22.3393 20.7281L23.0522 16.08H18.5926V13.0637C18.5926 11.7919 19.2155 10.5525 21.2131 10.5525H23.2407V6.59531C23.2407 6.59531 21.4005 6.28125 19.6411 6.28125C15.9682 6.28125 13.5676 8.50733 13.5676 12.5374V16.08H9.48474V20.7281H13.5676V31.9647C14.3987 32.0949 15.2388 32.1602 16.0801 32.16C16.9214 32.1602 17.7614 32.0949 18.5926 31.9647V20.7281H22.3393Z" fill="white"/>
</g>
<defs>
<clipPath id="clip0_30_780">
<rect width="32.16" height="32.16" fill="white"/>
</clipPath>
</defs>
</svg>
