<svg width="27" height="28" viewBox="0 0 27 28" fill="none" xmlns="http://www.w3.org/2000/svg">
<g clip-path="url(#clip0_30_775)">
<path d="M20.6788 0.680176H6.44128C2.97225 0.680176 0.160034 3.49239 0.160034 6.96143V21.1989C0.160034 24.668 2.97225 27.4802 6.44128 27.4802H20.6788C24.1478 27.4802 26.96 24.668 26.96 21.1989V6.96143C26.96 3.49239 24.1478 0.680176 20.6788 0.680176Z" fill="url(#paint0_radial_30_775)"/>
<path d="M20.6788 0.680176H6.44128C2.97225 0.680176 0.160034 3.49239 0.160034 6.96143V21.1989C0.160034 24.668 2.97225 27.4802 6.44128 27.4802H20.6788C24.1478 27.4802 26.96 24.668 26.96 21.1989V6.96143C26.96 3.49239 24.1478 0.680176 20.6788 0.680176Z" fill="url(#paint1_radial_30_775)"/>
<path d="M13.5609 3.61133C10.7178 3.61133 10.3609 3.62379 9.2443 3.67456C8.1298 3.72565 7.36903 3.90205 6.70343 4.16094C6.01479 4.42831 5.43074 4.78603 4.84889 5.36809C4.26651 5.95005 3.9088 6.5341 3.64059 7.22242C3.38096 7.88823 3.20435 8.64931 3.15421 9.76329C3.10427 10.88 3.09119 11.237 3.09119 14.0802C3.09119 16.9234 3.10375 17.2791 3.15442 18.3957C3.20571 19.5102 3.38211 20.271 3.6408 20.9366C3.90838 21.6252 4.26609 22.2093 4.84816 22.7911C5.42991 23.3735 6.01396 23.7321 6.70207 23.9994C7.36819 24.2583 8.12906 24.4347 9.24336 24.4858C10.3601 24.5366 10.7166 24.549 13.5596 24.549C16.403 24.549 16.7588 24.5366 17.8754 24.4858C18.9899 24.4347 19.7515 24.2583 20.4176 23.9994C21.1059 23.7321 21.6891 23.3735 22.2708 22.7911C22.8531 22.2093 23.2108 21.6252 23.4791 20.9369C23.7364 20.271 23.9131 19.51 23.9655 18.3959C24.0156 17.2793 24.0287 16.9234 24.0287 14.0802C24.0287 11.237 24.0156 10.8802 23.9655 9.7635C23.9131 8.649 23.7364 7.88834 23.4791 7.22273C23.2108 6.5341 22.8531 5.95005 22.2708 5.36809C21.6885 4.78582 21.1061 4.4281 20.417 4.16104C19.7496 3.90205 18.9884 3.72554 17.8739 3.67456C16.7572 3.62379 16.4017 3.61133 13.5576 3.61133H13.5609ZM12.6217 5.4979C12.9005 5.49748 13.2115 5.4979 13.5609 5.4979C16.3561 5.4979 16.6874 5.50795 17.7912 5.5581C18.8119 5.60479 19.3659 5.77532 19.7349 5.91864C20.2235 6.10833 20.5718 6.33519 20.938 6.7017C21.3044 7.06811 21.5312 7.41703 21.7214 7.90561C21.8647 8.27411 22.0354 8.82812 22.0819 9.84882C22.1321 10.9524 22.143 11.2839 22.143 14.0778C22.143 16.8717 22.1321 17.2032 22.0819 18.3067C22.0352 19.3274 21.8647 19.8814 21.7214 20.25C21.5317 20.7386 21.3044 21.0865 20.938 21.4527C20.5716 21.8191 20.2237 22.0459 19.7349 22.2357C19.3663 22.3796 18.8119 22.5497 17.7912 22.5964C16.6876 22.6466 16.3561 22.6574 13.5609 22.6574C10.7655 22.6574 10.4342 22.6466 9.33067 22.5964C8.30996 22.5493 7.75596 22.3788 7.38662 22.2354C6.89815 22.0456 6.54912 21.8189 6.18271 21.4525C5.81631 21.0861 5.58955 20.738 5.39934 20.2492C5.25602 19.8806 5.08527 19.3266 5.03879 18.3059C4.98865 17.2023 4.9786 16.8708 4.9786 14.0752C4.9786 11.2795 4.98865 10.9498 5.03879 9.8462C5.08548 8.8255 5.25602 8.27149 5.39934 7.90247C5.58913 7.41389 5.81631 7.06497 6.18282 6.69856C6.54933 6.33216 6.89815 6.1053 7.38672 5.91519C7.75575 5.77124 8.30996 5.60112 9.33067 5.55422C10.2964 5.51057 10.6707 5.49748 12.6217 5.49528V5.4979ZM19.1491 7.23613C18.4555 7.23613 17.8928 7.79831 17.8928 8.49196C17.8928 9.18552 18.4555 9.74821 19.1491 9.74821C19.8427 9.74821 20.4053 9.18552 20.4053 8.49196C20.4053 7.79841 19.8427 7.23571 19.1491 7.23571V7.23613ZM13.5609 8.70396C10.5919 8.70396 8.18476 11.1111 8.18476 14.0802C8.18476 17.0492 10.5919 19.4553 13.5609 19.4553C16.5299 19.4553 18.9363 17.0492 18.9363 14.0802C18.9363 11.1112 16.5297 8.70396 13.5607 8.70396H13.5609ZM13.5609 10.5905C15.4881 10.5905 17.0505 12.1528 17.0505 14.0802C17.0505 16.0074 15.4881 17.5698 13.5609 17.5698C11.6337 17.5698 10.0713 16.0074 10.0713 14.0802C10.0713 12.1528 11.6336 10.5905 13.5609 10.5905Z" fill="white"/>
</g>
<defs>
<radialGradient id="paint0_radial_30_775" cx="0" cy="0" r="1" gradientUnits="userSpaceOnUse" gradientTransform="translate(7.27878 29.5443) rotate(-90) scale(26.5608 24.7036)">
<stop stop-color="#FFDD55"/>
<stop offset="0.1" stop-color="#FFDD55"/>
<stop offset="0.5" stop-color="#FF543E"/>
<stop offset="1" stop-color="#C837AB"/>
</radialGradient>
<radialGradient id="paint1_radial_30_775" cx="0" cy="0" r="1" gradientUnits="userSpaceOnUse" gradientTransform="translate(-4.32907 2.61072) rotate(78.681) scale(11.8728 48.9402)">
<stop stop-color="#3771C8"/>
<stop offset="0.128" stop-color="#3771C8"/>
<stop offset="1" stop-color="#6600FF" stop-opacity="0"/>
</radialGradient>
<clipPath id="clip0_30_775">
<rect width="26.8" height="26.8" fill="white" transform="translate(0.160034 0.680176)"/>
</clipPath>
</defs>
</svg>
