<svg width="28" height="28" viewBox="0 0 28 28" fill="none" xmlns="http://www.w3.org/2000/svg">
<g clip-path="url(#clip0_30_786)">
<path d="M23.2947 23.5154H19.3238V17.2967C19.3238 15.8138 19.2973 13.9048 17.2585 13.9048C15.1903 13.9048 14.8738 15.5205 14.8738 17.1887V23.515H10.903V10.7268H14.715V12.4744H14.7684C15.1499 11.8222 15.7012 11.2856 16.3636 10.9218C17.0259 10.558 17.7745 10.3807 18.5296 10.4086C22.5543 10.4086 23.2964 13.056 23.2964 16.5L23.2947 23.5154ZM6.42242 8.97882C5.14973 8.97903 4.11783 7.94744 4.11762 6.67475C4.11741 5.40207 5.1489 4.37016 6.42158 4.36995C7.69427 4.36964 8.72617 5.40123 8.72638 6.67392C8.72649 7.28509 8.48382 7.87127 8.05175 8.30352C7.61967 8.73577 7.03359 8.97868 6.42242 8.97882ZM8.40792 23.5155H4.43283V10.7268H8.40782L8.40792 23.5155ZM25.2743 0.682126H2.43749C1.35816 0.669983 0.473029 1.5346 0.459839 2.61392V25.546C0.472611 26.6259 1.35764 27.4913 2.43739 27.48H25.2743C26.3564 27.4934 27.2449 26.628 27.2598 25.546V2.61215C27.2445 1.53072 26.3559 0.666214 25.2743 0.680347" fill="#0A66C2"/>
</g>
<defs>
<clipPath id="clip0_30_786">
<rect width="26.8" height="26.8" fill="white" transform="translate(0.459961 0.680176)"/>
</clipPath>
</defs>
</svg>
