<svg width="233" height="53" viewBox="0 0 233 53" fill="none" xmlns="http://www.w3.org/2000/svg">
<path d="M31.8207 35.9933L29.7097 33.6842C24.9088 28.4327 26.2999 20.0709 32.5425 16.6567V16.6567" stroke="#30D271" stroke-width="1.12757"/>
<path d="M26.7012 40.9377L23.5226 37.4608C16.2937 29.5534 18.3883 16.9627 27.7881 11.8216V11.8216" stroke="#30D271" stroke-width="1.12757"/>
<path d="M21.2572 44.1276L17.389 39.8964C8.59158 30.2733 11.1407 14.9509 22.5798 8.69449V8.69449" stroke="#30D271" stroke-width="1.12757"/>
<path d="M43.7084 40.3552L41.8536 14.3478L59.2577 13.7952L59.1393 16.4394L50.8121 17.426L49.7861 25.5953L58.1921 25.5164L58.3894 29.0682L49.4703 28.3973L48.4048 37.198L59.2971 35.9351L59.1393 40L43.7084 40.3552ZM70.5237 40.9472C68.6294 40.9472 66.906 40.7235 65.3538 40.2763C63.8278 39.829 62.6701 39.2765 61.8808 38.6187C61.6704 37.5663 61.5125 36.6192 61.4073 35.7772C61.3283 34.909 61.2889 34.0934 61.2889 33.3304C61.2889 30.9888 61.6572 28.8446 62.3939 26.8976C63.1306 24.9244 64.0646 23.2405 65.1959 21.8461C66.3272 20.4254 67.4849 19.3861 68.6688 18.7284L75.4963 23.1879C72.2338 24.9507 69.6423 27.0555 67.7217 29.5023C65.801 31.9491 64.8407 34.5407 64.8407 37.2769C65.9457 37.4348 67.0902 37.5137 68.2742 37.5137C69.4318 37.5137 70.6026 37.4216 71.7866 37.2375C72.9968 37.027 74.2071 36.6849 75.4173 36.2114L76.6013 40.0395C75.5752 40.3815 74.5491 40.6183 73.523 40.7498C72.4969 40.8814 71.4971 40.9472 70.5237 40.9472ZM79.4807 40.592L77.468 13.0454L85.9135 11.7431L84.4533 28.0026H84.8085C85.8609 25.398 87.1106 23.3063 88.5576 21.7277C90.031 20.1491 91.5833 19.3598 93.2145 19.3598C93.6881 19.3598 94.1617 19.4387 94.6352 19.5966C95.2404 20.3333 95.7534 21.3462 96.1744 22.6354C96.5953 23.8983 96.9374 25.3059 97.2005 26.8582C97.4636 28.4104 97.6609 30.0022 97.7924 31.6334C97.924 33.2383 98.0161 34.7775 98.0687 36.2508C98.1213 37.6979 98.1476 38.9476 98.1476 40L91.0439 40.592C91.0439 38.0399 91.0176 35.8299 90.965 33.9619C90.9124 32.0938 90.8334 30.3837 90.7282 28.8314C90.6493 27.2528 90.5309 25.6611 90.373 24.0561C89.8731 24.2403 89.2943 24.5823 88.6366 25.0822C88.0051 25.5821 87.3605 26.3977 86.7028 27.5291C86.045 28.6604 85.4267 30.2521 84.8479 32.3043C84.2691 34.3302 83.7824 36.9744 83.3877 40.2368L79.4807 40.592ZM108.686 40.9472C106.818 40.9472 105.227 40.7235 103.911 40.2763C102.622 39.8553 101.569 39.3159 100.754 38.6582C100.543 37.6058 100.386 36.5929 100.28 35.6194C100.201 34.6196 100.162 33.6593 100.162 32.7384C100.162 30.8967 100.425 29.1866 100.951 27.608C101.504 26.0294 102.175 24.635 102.964 23.4247C103.779 22.1881 104.608 21.1752 105.45 20.3859C106.292 19.5703 107.002 19.0178 107.581 18.7284C108.765 19.3335 109.936 20.0702 111.094 20.9384C112.251 21.8066 113.304 22.8196 114.251 23.9772C115.224 25.1349 116 26.4372 116.579 27.8842C117.158 29.3313 117.448 30.9494 117.448 32.7384C117.448 34.5538 117.198 36.0667 116.698 37.2769C116.198 38.4872 115.316 39.3949 114.054 40C112.791 40.6314 111.002 40.9472 108.686 40.9472ZM106.555 37.5137C107.555 37.5137 108.555 37.4479 109.555 37.3164C110.581 37.1585 111.475 36.948 112.238 36.6849C112.449 35.843 112.607 35.0011 112.712 34.1592C112.817 33.3173 112.87 32.4885 112.87 31.6729C112.87 29.1734 112.343 26.8845 111.291 24.806C109.818 25.569 108.515 26.6345 107.384 28.0026C106.253 29.3445 105.358 30.831 104.7 32.4622C104.069 34.0671 103.753 35.672 103.753 37.2769C104.595 37.4348 105.529 37.5137 106.555 37.5137Z" fill="#30D271"/>
<path d="M127.001 40.592L117.254 14.8213L126.291 13.7558L129.488 33.5672H129.843L135.565 13.7558L139.117 14.7029L130.553 40L127.001 40.592ZM144.115 17.7417C143.115 17.7417 142.247 17.3866 141.51 16.6762C140.8 15.9395 140.445 15.0713 140.445 14.0715C140.445 13.0717 140.8 12.2166 141.51 11.5063C142.247 10.7696 143.115 10.4013 144.115 10.4013C145.115 10.4013 145.97 10.7696 146.68 11.5063C147.417 12.2166 147.785 13.0717 147.785 14.0715C147.785 15.0713 147.417 15.9395 146.68 16.6762C145.97 17.3866 145.115 17.7417 144.115 17.7417ZM142.299 40.592L140.287 21.0568L148.732 19.7545L146.206 40.2368L142.299 40.592ZM161.973 40.9472C160.763 40.9472 159.408 40.7893 157.908 40.4736C156.409 40.1842 154.883 39.658 153.33 38.895L151.476 13.0454L159.921 11.7431L158.5 27.5685H158.856C159.882 25.0954 161.105 23.109 162.526 21.6093C163.947 20.1096 165.459 19.3598 167.064 19.3598C167.538 19.3598 168.011 19.4387 168.485 19.5966C169.116 20.3596 169.669 21.3857 170.143 22.6749C170.642 23.9641 171.024 25.398 171.287 26.9766C171.55 28.5552 171.682 30.1732 171.682 31.8307C171.682 33.8303 171.405 35.5141 170.853 36.8823C170.327 38.2241 169.353 39.237 167.933 39.9211C166.538 40.6051 164.552 40.9472 161.973 40.9472ZM159.803 38.4214C160.697 38.4214 161.5 38.3951 162.21 38.3425C162.92 38.2635 163.657 38.132 164.42 37.9478C164.552 37.2375 164.683 36.3824 164.815 35.3826C164.946 34.3828 165.012 33.0805 165.012 31.4756C165.012 30.581 164.973 29.6339 164.894 28.6341C164.815 27.6343 164.71 26.7135 164.578 25.8715C164.473 25.0296 164.354 24.4245 164.223 24.0561C163.749 24.2403 163.21 24.5692 162.605 25.0428C162 25.49 161.381 26.2136 160.75 27.2133C160.118 28.2131 159.513 29.6076 158.934 31.3966C158.382 33.1857 157.922 35.4878 157.553 38.303C158.264 38.3819 159.013 38.4214 159.803 38.4214ZM184.194 40.9472C182.141 40.9472 180.326 40.763 178.747 40.3946C177.169 40.0263 175.853 39.4343 174.801 38.6187C174.564 37.5663 174.393 36.6192 174.288 35.7772C174.209 34.909 174.17 34.0934 174.17 33.3304C174.17 30.9888 174.525 28.8446 175.235 26.8976C175.972 24.9507 176.906 23.28 178.037 21.8856C179.168 20.4648 180.339 19.4124 181.549 18.7284C182.628 19.1493 183.72 19.6624 184.825 20.2675C185.956 20.8463 186.996 21.5304 187.943 22.3197C188.89 23.109 189.653 24.0035 190.232 25.0033C190.811 25.9768 191.1 27.0555 191.1 28.2394C191.1 29.476 190.876 30.5152 190.429 31.3572C190.008 32.1728 189.232 32.7911 188.101 33.212C186.969 33.633 185.338 33.8435 183.207 33.8435C182.312 33.8435 181.444 33.804 180.602 33.7251C179.787 33.6461 179.076 33.5409 178.471 33.4093C177.971 34.6459 177.721 35.9351 177.721 37.2769C178.326 37.3558 178.984 37.4216 179.695 37.4742C180.405 37.5006 181.089 37.5137 181.747 37.5137C182.983 37.5137 184.246 37.4216 185.535 37.2375C186.851 37.027 188.166 36.6849 189.482 36.2114L190.666 40.0395C189.613 40.3815 188.535 40.6183 187.43 40.7498C186.325 40.8814 185.246 40.9472 184.194 40.9472ZM180.918 31.594C181.918 31.594 182.918 31.5413 183.917 31.4361C184.943 31.3309 185.838 31.1993 186.601 31.0414C186.68 30.5152 186.719 30.0154 186.719 29.5418C186.719 28.5946 186.588 27.7527 186.325 27.016C186.088 26.253 185.785 25.5821 185.417 25.0033C183.944 25.9768 182.72 27.0029 181.747 28.0816C180.8 29.1603 179.971 30.3179 179.26 31.5545C179.524 31.5808 179.8 31.594 180.089 31.594C180.379 31.594 180.655 31.594 180.918 31.594Z" fill="#232323"/>
<path d="M200.546 17.0067L202.657 19.3158C207.458 24.5673 206.067 32.9291 199.824 36.3433V36.3433" stroke="#424242" stroke-width="1.12757"/>
<path d="M205.666 12.0623L208.844 15.5392C216.073 23.4466 213.978 36.0374 204.579 41.1784V41.1784" stroke="#424242" stroke-width="1.12757"/>
<path d="M211.11 8.87238L214.978 13.1037C223.775 22.7267 221.226 38.0491 209.787 44.3055V44.3055" stroke="#424242" stroke-width="1.12757"/>
</svg>
