<svg width="26" height="29" viewBox="0 0 26 29" fill="none" xmlns="http://www.w3.org/2000/svg">
<path fill-rule="evenodd" clip-rule="evenodd" d="M18.6231 19.768L25.6169 26.7619C25.8627 27.0079 26.0008 27.3414 26.0007 27.6892C26.0005 28.037 25.8623 28.3704 25.6163 28.6163C25.3703 28.8621 25.0367 29.0001 24.6889 29C24.3412 28.9999 24.0077 28.8616 23.7619 28.6156L16.768 21.6218C14.6773 23.2411 12.0482 24.0032 9.41553 23.7529C6.78289 23.5026 4.34448 22.2588 2.59634 20.2745C0.848201 18.2902 -0.0783429 15.7145 0.00519511 13.0713C0.0887331 10.4281 1.17608 7.91598 3.04603 6.04603C4.91598 4.17608 7.42807 3.08873 10.0713 3.0052C12.7145 2.92166 15.2902 3.8482 17.2745 5.59634C19.2588 7.34448 20.5026 9.78289 20.7529 12.4155C21.0032 15.0482 20.2411 17.6773 18.6218 19.768M10.4007 21.1993C12.4694 21.1993 14.4533 20.3775 15.9161 18.9148C17.3788 17.452 18.2006 15.4681 18.2006 13.3994C18.2006 11.3308 17.3788 9.34688 15.9161 7.88413C14.4533 6.42138 12.4694 5.59961 10.4007 5.59961C8.3321 5.59961 6.34818 6.42138 4.88543 7.88413C3.42268 9.34688 2.60091 11.3308 2.60091 13.3994C2.60091 15.4681 3.42268 17.452 4.88543 18.9148C6.34818 20.3775 8.3321 21.1993 10.4007 21.1993Z" fill="#424242"/>
</svg>
