<svg width="36" height="35" viewBox="0 0 36 35" fill="none" xmlns="http://www.w3.org/2000/svg">
<path fill-rule="evenodd" clip-rule="evenodd" d="M13.2639 11.9583V10.7333C13.2639 9.43376 13.7658 8.18742 14.6592 7.26849C15.5526 6.34956 16.7643 5.83331 18.0278 5.83331C19.2913 5.83331 20.503 6.34956 21.3964 7.26849C22.2898 8.18742 22.7917 9.43376 22.7917 10.7333V11.9583H26.3646C27.022 11.9583 27.5556 12.5084 27.5556 13.1919V27.8932C27.5556 29.2407 26.4897 30.3334 25.1808 30.3334H10.8748C10.2454 30.3334 9.6417 30.0764 9.19641 29.6188C8.75111 29.1612 8.50063 28.5406 8.5 27.8932V13.1931C8.5 12.5096 9.02998 11.9583 9.69098 11.9583H13.2639ZM14.6931 11.9583H21.3625V10.7333C21.3625 9.82363 21.0112 8.95119 20.3858 8.30794C19.7604 7.66469 18.9122 7.30332 18.0278 7.30332C17.1434 7.30332 16.2952 7.66469 15.6698 8.30794C15.0444 8.95119 14.6931 9.82363 14.6931 10.7333V11.9583ZM13.2639 13.4283H9.92917V27.8932C9.92917 28.4273 10.3532 28.8634 10.8748 28.8634H25.1808C25.4312 28.8634 25.6713 28.7612 25.8486 28.5793C26.0259 28.3975 26.1258 28.1507 26.1264 27.8932V13.4283H22.7917V16.8583H21.3625V13.4283H14.6931V16.8583H13.2639V13.4283Z" fill="#424242"/>
</svg>
