<svg width="35" height="24" viewBox="0 0 35 24" fill="none" xmlns="http://www.w3.org/2000/svg">
<g clip-path="url(#clip0_30_783)">
<path d="M33.7201 3.97661C33.528 3.26651 33.1531 2.61913 32.633 2.09895C32.1128 1.57876 31.4655 1.20391 30.7554 1.01173C28.1557 0.302734 17.693 0.302734 17.693 0.302734C17.693 0.302734 7.22972 0.324195 4.63007 1.03319C3.91996 1.22538 3.27259 1.60025 2.75242 2.12046C2.23226 2.64067 1.85745 3.28808 1.66532 3.9982C0.878984 8.61728 0.573951 15.6557 1.68691 20.09C1.87906 20.8001 2.25388 21.4475 2.77404 21.9676C3.29421 22.4878 3.94157 22.8627 4.65166 23.0549C7.25131 23.7639 17.7143 23.7639 17.7143 23.7639C17.7143 23.7639 28.1772 23.7639 30.7767 23.0549C31.4868 22.8627 32.1342 22.4879 32.6544 21.9677C33.1746 21.4475 33.5494 20.8001 33.7416 20.09C34.571 15.4644 34.8265 8.43028 33.7201 3.97661Z" fill="#FF0000"/>
<path d="M14.3627 17.0606L23.0423 12.0332L14.3627 7.00586V17.0606Z" fill="white"/>
</g>
<defs>
<clipPath id="clip0_30_783">
<rect width="33.5" height="23.5547" fill="white" transform="translate(0.959961 0.302734)"/>
</clipPath>
</defs>
</svg>
