<svg width="40" height="40" viewBox="0 0 40 40" fill="none" xmlns="http://www.w3.org/2000/svg">
<path d="M8 8.93336C8 8.68582 8.09834 8.44841 8.27338 8.27338C8.44841 8.09834 8.68582 8 8.93336 8H11.7334C11.9416 8.00006 12.1438 8.06972 12.3079 8.19792C12.4719 8.32611 12.5884 8.50548 12.6388 8.70749L13.3948 11.7334H35.0675C35.2046 11.7336 35.3399 11.7639 35.4639 11.8222C35.5879 11.8805 35.6976 11.9655 35.7851 12.071C35.8725 12.1764 35.9357 12.2999 35.9701 12.4326C36.0045 12.5652 36.0093 12.7038 35.9841 12.8385L33.184 27.7723C33.1439 27.9862 33.0304 28.1794 32.8631 28.3185C32.6957 28.4575 32.485 28.5338 32.2674 28.534H15.4669C15.2493 28.5338 15.0386 28.4575 14.8712 28.3185C14.7039 28.1794 14.5904 27.9862 14.5503 27.7723L11.7521 12.8666L11.0054 9.86672H8.93336C8.68582 9.86672 8.44841 9.76839 8.27338 9.59335C8.09834 9.41831 8 9.18091 8 8.93336ZM13.7906 13.6002L16.2416 26.6672H31.4927L33.9437 13.6002H13.7906ZM17.3336 28.534C16.3434 28.534 15.3938 28.9273 14.6937 29.6275C13.9935 30.3276 13.6002 31.2772 13.6002 32.2674C13.6002 33.2576 13.9935 34.2072 14.6937 34.9074C15.3938 35.6075 16.3434 36.0009 17.3336 36.0009C18.3238 36.0009 19.2734 35.6075 19.9736 34.9074C20.6737 34.2072 21.0671 33.2576 21.0671 32.2674C21.0671 31.2772 20.6737 30.3276 19.9736 29.6275C19.2734 28.9273 18.3238 28.534 17.3336 28.534ZM30.4007 28.534C29.4105 28.534 28.4609 28.9273 27.7607 29.6275C27.0606 30.3276 26.6672 31.2772 26.6672 32.2674C26.6672 33.2576 27.0606 34.2072 27.7607 34.9074C28.4609 35.6075 29.4105 36.0009 30.4007 36.0009C31.3909 36.0009 32.3405 35.6075 33.0406 34.9074C33.7408 34.2072 34.1341 33.2576 34.1341 32.2674C34.1341 31.2772 33.7408 30.3276 33.0406 29.6275C32.3405 28.9273 31.3909 28.534 30.4007 28.534ZM17.3336 30.4007C17.8287 30.4007 18.3035 30.5974 18.6536 30.9474C19.0037 31.2975 19.2003 31.7723 19.2003 32.2674C19.2003 32.7625 19.0037 33.2373 18.6536 33.5874C18.3035 33.9375 17.8287 34.1341 17.3336 34.1341C16.8385 34.1341 16.3637 33.9375 16.0136 33.5874C15.6636 33.2373 15.4669 32.7625 15.4669 32.2674C15.4669 31.7723 15.6636 31.2975 16.0136 30.9474C16.3637 30.5974 16.8385 30.4007 17.3336 30.4007ZM30.4007 30.4007C30.8958 30.4007 31.3706 30.5974 31.7207 30.9474C32.0707 31.2975 32.2674 31.7723 32.2674 32.2674C32.2674 32.7625 32.0707 33.2373 31.7207 33.5874C31.3706 33.9375 30.8958 34.1341 30.4007 34.1341C29.9056 34.1341 29.4308 33.9375 29.0807 33.5874C28.7306 33.2373 28.534 32.7625 28.534 32.2674C28.534 31.7723 28.7306 31.2975 29.0807 30.9474C29.4308 30.5974 29.9056 30.4007 30.4007 30.4007Z" fill="#424242"/>
</svg>
