<svg width="32" height="33" viewBox="0 0 32 33" fill="none" xmlns="http://www.w3.org/2000/svg">
<path d="M28.1141 16.3435C27.8743 16.1304 27.4748 15.8374 27.235 15.6243C26.5424 15.1181 25.8498 14.5853 25.6101 13.8927C25.3703 13.1735 25.6367 12.2944 25.9031 11.4686C25.983 11.1756 26.1162 10.776 26.1695 10.483L26.3559 9.52401L25.3969 9.41745C25.0773 9.39081 24.6511 9.39081 24.358 9.36417C23.479 9.36417 22.5999 9.36417 21.9872 8.91132C21.3745 8.4851 21.1081 7.63266 20.8151 6.78023C20.7086 6.4872 20.5754 6.08762 20.4422 5.7946L20.0426 4.88889L19.1902 5.39502C18.9238 5.55485 18.6041 5.7946 18.3644 5.95443C17.6451 6.46056 16.8992 6.99334 16.1267 6.99334C15.3542 6.99334 14.6083 6.46056 13.8891 5.95443C13.6493 5.7946 13.3297 5.55485 13.0633 5.39502L12.2108 4.88889L11.8113 5.7946C11.6781 6.08762 11.5449 6.51384 11.4383 6.80687C11.1719 7.63266 10.8789 8.4851 10.2929 8.91132C9.68016 9.36417 8.77445 9.36417 7.92201 9.36417C7.62899 9.36417 7.17613 9.36417 6.88311 9.41745L5.92412 9.52401L6.13722 10.483C6.1905 10.776 6.32369 11.2022 6.43025 11.4686C6.69664 12.2944 6.96302 13.1735 6.72327 13.8927C6.51016 14.5853 5.79092 15.1181 5.09832 15.6243C4.83193 15.8107 4.43235 16.1037 4.21924 16.3169L3.5 16.9828L4.1926 17.6222C4.43235 17.8353 4.83193 18.1283 5.09832 18.3414C5.79092 18.8475 6.48353 19.3803 6.72327 20.0729C6.96302 20.7921 6.69664 21.6712 6.43025 22.497C6.35033 22.79 6.21714 23.1896 6.16386 23.4826L5.97739 24.4416L6.93638 24.5482C7.25605 24.5748 7.68226 24.5748 7.97529 24.6015C8.85436 24.6015 9.73344 24.6015 10.3461 25.0543C10.9588 25.4805 11.2252 26.333 11.5182 27.1854C11.6248 27.4784 11.758 27.878 11.8912 28.171L12.2907 29.0768L13.1432 28.5706C13.4096 28.4108 13.7292 28.1977 13.969 28.0112C14.6882 27.5051 15.4341 26.9723 16.2066 26.9723C16.9791 26.9723 17.725 27.5051 18.4443 28.0112C18.684 28.171 19.0037 28.4108 19.2701 28.5706L20.1225 29.0768L20.5221 28.171C20.6553 27.878 20.7885 27.4518 20.895 27.1854C21.1614 26.3596 21.4544 25.5072 22.0405 25.081C22.6532 24.6281 23.5589 24.6281 24.4113 24.6281C24.7043 24.6281 25.1572 24.6281 25.4502 24.5748L26.4092 24.4683L26.1961 23.5093C26.1428 23.2163 26.0096 22.8167 25.9031 22.5237C25.6367 21.6979 25.3703 20.8188 25.6101 20.0995C25.8498 19.4069 26.5424 18.8742 27.2617 18.368C27.528 18.1816 27.901 17.8885 28.1407 17.6754L28.8333 17.0361L28.1141 16.3435ZM23.9318 19.5135C23.5589 20.6856 23.8785 21.8577 24.1716 22.8167C23.1593 22.8167 21.9606 22.87 20.9483 23.6158C19.9627 24.3351 19.5365 25.4539 19.2168 26.4129C18.391 25.8268 17.3787 25.1609 16.1533 25.1609C14.9013 25.1609 13.9157 25.8002 13.0899 26.4129C12.7702 25.4539 12.344 24.3351 11.3584 23.6158C10.3461 22.8966 9.14739 22.8433 8.13512 22.8167C8.42815 21.8577 8.74781 20.6856 8.37487 19.5135C8.00193 18.3414 7.0163 17.5955 6.21714 16.9828C7.0163 16.3968 8.00193 15.6509 8.37487 14.4522C8.74781 13.2801 8.42815 12.108 8.13512 11.149C9.14739 11.149 10.3461 11.0957 11.3584 10.3498C12.344 9.63056 12.7702 8.51174 13.0899 7.55275C13.9157 8.1388 14.928 8.80476 16.1533 8.80476C17.4054 8.80476 18.4176 8.1388 19.2168 7.55275C19.5365 8.51174 19.9627 9.63056 20.9483 10.3498C21.9606 11.069 23.1593 11.1223 24.1716 11.149C23.8785 12.108 23.5589 13.2801 23.9318 14.4522C24.3048 15.6509 25.2904 16.3968 26.0896 16.9828C25.2904 17.5689 24.3314 18.3148 23.9318 19.5135Z" fill="#424242"/>
<path d="M18.7639 12.9604L12.1309 19.5934C11.7313 19.993 11.7313 20.6323 12.1309 21.0052C12.3173 21.1917 12.5837 21.2983 12.8501 21.2983C13.1165 21.2983 13.3562 21.1917 13.5693 21.0052L20.1757 14.3988C20.5753 13.9993 20.5753 13.3599 20.1757 12.987C19.7761 12.5874 19.1368 12.5874 18.7639 12.9604Z" fill="#424242"/>
<path d="M13.383 15.7042C14.2069 15.7042 14.8748 15.0363 14.8748 14.2124C14.8748 13.3885 14.2069 12.7206 13.383 12.7206C12.5591 12.7206 11.8912 13.3885 11.8912 14.2124C11.8912 15.0363 12.5591 15.7042 13.383 15.7042Z" fill="#424242"/>
<path d="M18.9238 21.245C19.7476 21.245 20.4155 20.5771 20.4155 19.7532C20.4155 18.9294 19.7476 18.2615 18.9238 18.2615C18.0999 18.2615 17.432 18.9294 17.432 19.7532C17.432 20.5771 18.0999 21.245 18.9238 21.245Z" fill="#424242"/>
</svg>
