<svg width="39" height="39" viewBox="0 0 39 39" fill="none" xmlns="http://www.w3.org/2000/svg">
<path d="M30.523 19.6869L20.7203 9.88926L20.0632 9.23219C19.9135 9.08347 19.7111 9 19.5 9C19.289 9 19.0866 9.08347 18.9368 9.23219L8.47705 19.6869C8.32364 19.8397 8.2024 20.0217 8.12049 20.2221C8.03857 20.4226 7.99764 20.6374 8.00011 20.8539C8.01025 21.7469 8.75358 22.4598 9.64658 22.4598H10.7248V30.7226H28.2753V22.4598H29.3763C29.8102 22.4598 30.2186 22.2898 30.5256 21.9828C30.6767 21.8322 30.7965 21.653 30.8779 21.4558C30.9594 21.2585 31.0008 21.047 31 20.8336C31 20.4023 30.83 19.9939 30.523 19.6869ZM20.9207 28.896H18.0794V23.7206H20.9207V28.896ZM26.4487 20.6332V28.896H22.5444V23.1118C22.5444 22.5511 22.0903 22.097 21.5296 22.097H17.4705C16.9098 22.097 16.4557 22.5511 16.4557 23.1118V28.896H12.5514V20.6332H10.1159L19.5026 11.2541L20.0886 11.8402L28.8867 20.6332H26.4487Z" fill="#424242"/>
</svg>
