<svg width="13" height="21" viewBox="0 0 13 21" fill="none" xmlns="http://www.w3.org/2000/svg">
<path d="M12.8945 6.68941V5.15623C12.8953 5.1324 12.8911 5.10868 12.8822 5.08654C12.8734 5.06441 12.86 5.04434 12.843 5.02761C12.8261 5.01087 12.8058 4.99783 12.7835 4.98929C12.7613 4.98076 12.7375 4.97692 12.7137 4.97802H9.8963L9.84913 4.73428C9.71387 3.99327 9.40391 3.29518 8.94494 2.6979L8.5623 2.20781H12.6849C12.7086 2.20893 12.7322 2.20509 12.7544 2.19653C12.7765 2.18797 12.7966 2.17488 12.8134 2.1581C12.8301 2.14133 12.8432 2.12123 12.8518 2.0991C12.8603 2.07697 12.8642 2.05329 12.8631 2.02959V0.496413C12.8638 0.472813 12.8597 0.449313 12.851 0.427362C12.8423 0.405412 12.8292 0.385474 12.8125 0.368778C12.7958 0.352082 12.7759 0.338981 12.7539 0.330282C12.732 0.321583 12.7085 0.31747 12.6849 0.318197H0.178298C0.154697 0.31747 0.131198 0.321583 0.109247 0.330282C0.0872963 0.338981 0.0673589 0.352082 0.050663 0.368778C0.033967 0.385474 0.0208661 0.405412 0.0121671 0.427362C0.00346807 0.449313 -0.000644744 0.472813 8.19461e-05 0.496413V2.4961C0.000738632 2.54341 0.0196455 2.58863 0.0528543 2.62233C0.0860631 2.65602 0.131006 2.67559 0.178298 2.67694H2.35882C4.5839 2.67694 6.02797 3.30593 6.65697 4.54296L6.87712 4.98064H0.178298C0.154697 4.97991 0.131198 4.98402 0.109247 4.99272C0.0872963 5.00142 0.0673589 5.01452 0.050663 5.03122C0.033967 5.04791 0.0208661 5.06785 0.0121671 5.0898C0.00346807 5.11175 -0.000644744 5.13525 8.19461e-05 5.15885V6.69203C-0.000644744 6.71563 0.00346807 6.73913 0.0121671 6.76108C0.0208661 6.78303 0.033967 6.80297 0.050663 6.81967C0.0673589 6.83636 0.0872963 6.84946 0.109247 6.85816C0.131198 6.86686 0.154697 6.87098 0.178298 6.87025H6.99243L6.89284 7.24765C6.42109 9.02194 4.63631 9.99689 1.86611 9.99689H0.178298C0.131006 9.99824 0.0860631 10.0178 0.0528543 10.0515C0.0196455 10.0852 0.000738632 10.1304 8.19461e-05 10.1777V12.0857C-0.000482949 12.1071 0.00341938 12.1284 0.0115409 12.1483C0.0196624 12.1682 0.0318254 12.1861 0.0472567 12.201C2.95375 15.2936 5.2889 18.0952 7.55067 20.8052C7.56651 20.8284 7.58812 20.8472 7.61339 20.8596C7.63866 20.872 7.66671 20.8776 7.69481 20.8759H10.6249C10.6583 20.8782 10.6916 20.8704 10.7206 20.8536C10.7495 20.8368 10.7728 20.8117 10.7874 20.7816C10.8055 20.7544 10.8152 20.7225 10.8152 20.6898C10.8152 20.6572 10.8055 20.6253 10.7874 20.5981C8.64879 17.9956 6.20094 15.0236 3.88152 12.5469L3.47267 12.1119L4.0676 12.0411C7.33838 11.6532 9.45076 9.86061 9.89106 7.13233L9.93299 6.87025H12.7137C12.7376 6.87098 12.7615 6.86679 12.7837 6.85796C12.806 6.84913 12.8262 6.83584 12.8432 6.8189C12.8601 6.80196 12.8734 6.78173 12.8822 6.75947C12.8911 6.7372 12.8952 6.71336 12.8945 6.68941Z" fill="#2E2B2B"/>
</svg>
